<svg xmlns="http://www.w3.org/2000/svg" viewBox="0 0 512 512">
  <defs>
    <linearGradient id="bg" x1="0%" y1="0%" x2="100%" y2="100%">
      <stop offset="0%" stop-color="#0d3b48" />
      <stop offset="100%" stop-color="#106164" />
    </linearGradient>
    <linearGradient id="page" x1="0%" y1="0%" x2="100%" y2="100%">
      <stop offset="0%" stop-color="#fffdf8" />
      <stop offset="100%" stop-color="#f3e5bf" />
    </linearGradient>
  </defs>
  <rect width="512" height="512" rx="108" fill="url(#bg)" />
  <path d="M118 110c34-18 74-28 118-28 48 0 89 12 126 35v286c-37-23-78-35-126-35-44 0-84 10-118 28V110Z" fill="url(#page)" />
  <path d="M394 110c-34-18-74-28-118-28-48 0-89 12-126 35v286c37-23 78-35 126-35 44 0 84 10 118 28V110Z" fill="#f8f0d8" opacity="0.55" />
  <path d="M257 124v234" stroke="#0d3b48" stroke-width="18" stroke-linecap="round" />
  <path d="M197 192h120" stroke="#0d3b48" stroke-width="18" stroke-linecap="round" />
  <path d="M160 284c24-10 48-14 75-14h44c27 0 51 4 75 14" stroke="#b37d21" stroke-width="16" stroke-linecap="round" />
</svg>
